<?xml version="1.0" encoding="UTF-8" standalone="no"?>
<!-- Created with Inkscape (http://www.inkscape.org/) -->

<svg
   width="53.53286mm"
   height="79.764656mm"
   viewBox="0 0 53.53286 79.764656"
   version="1.1"
   id="svg5"
   inkscape:version="1.4.2 (ebf0e94, 2025-05-08)"
   sodipodi:docname="main.svg"
   xmlns:inkscape="http://www.inkscape.org/namespaces/inkscape"
   xmlns:sodipodi="http://sodipodi.sourceforge.net/DTD/sodipodi-0.dtd"
   xmlns="http://www.w3.org/2000/svg"
   xmlns:svg="http://www.w3.org/2000/svg">
  <sodipodi:namedview
     id="namedview7"
     pagecolor="#505050"
     bordercolor="#ffffff"
     borderopacity="1"
     inkscape:showpageshadow="0"
     inkscape:pageopacity="0"
     inkscape:pagecheckerboard="1"
     inkscape:deskcolor="#505050"
     inkscape:document-units="mm"
     showgrid="false"
     showguides="true"
     inkscape:zoom="0.97121658"
     inkscape:cx="240.93493"
     inkscape:cy="13.900092"
     inkscape:window-width="1600"
     inkscape:window-height="843"
     inkscape:window-x="0"
     inkscape:window-y="28"
     inkscape:window-maximized="1"
     inkscape:current-layer="layer2"
     inkscape:pageshadow="2"
     inkscape:snap-to-guides="false"
     inkscape:snap-grids="false" />
  <defs
     id="defs2">
    <inkscape:path-effect
       effect="fillet_chamfer"
       id="path-effect7"
       is_visible="true"
       lpeversion="1"
       nodesatellites_param="F,0,0,1,0,0,0,1 @ F,0,0,1,0,0,0,1 @ F,0,0,1,0,0,0,1 @ F,0,0,1,0,0,0,1 @ F,0,0,1,0,0,0,1 @ F,0,0,1,0,0,0,1 @ F,0,0,1,0,0,0,1 @ F,0,0,1,0,0,0,1 @ F,0,0,1,0,12.243402,0,1 @ F,0,0,1,0,0,0,1 @ F,0,1,1,0,0,0,1 @ F,0,0,1,0,0,0,1"
       radius="0"
       unit="px"
       method="auto"
       mode="F"
       chamfer_steps="1"
       flexible="false"
       use_knot_distance="true"
       apply_no_radius="true"
       apply_with_radius="true"
       only_selected="false"
       hide_knots="false" />
    <inkscape:path-effect
       effect="fillet_chamfer"
       id="path-effect6"
       is_visible="true"
       lpeversion="1"
       nodesatellites_param="F,0,0,1,0,0,0,1 @ F,0,0,1,0,0,0,1 @ F,0,0,1,0,15.209983,0,1 @ F,0,0,1,0,0,0,1 @ F,0,0,1,0,0,0,1 @ F,0,0,1,0,32.676224,0,1 @ F,0,0,1,0,0,0,1 @ F,0,0,1,0,0,0,1 @ F,0,0,1,0,0,0,1"
       radius="0"
       unit="px"
       method="auto"
       mode="F"
       chamfer_steps="1"
       flexible="false"
       use_knot_distance="true"
       apply_no_radius="true"
       apply_with_radius="true"
       only_selected="false"
       hide_knots="false" />
    <inkscape:path-effect
       effect="fillet_chamfer"
       id="path-effect5"
       is_visible="true"
       lpeversion="1"
       nodesatellites_param="F,0,0,1,0,0,0,1 @ F,0,0,1,0,9.7571571,0,1 @ F,0,0,1,0,7.1970207,0,1 @ F,0,0,1,0,7.1802279,0,1 @ F,0,0,1,0,2.6061468,0,1 @ F,0,0,1,0,0,0,1 @ F,0,0,1,0,4.5855113,0,1 @ F,0,0,1,0,4.2434047,0,1 @ F,0,0,1,0,4.354102,0,1"
       radius="0"
       unit="px"
       method="auto"
       mode="F"
       chamfer_steps="1"
       flexible="false"
       use_knot_distance="true"
       apply_no_radius="true"
       apply_with_radius="true"
       only_selected="false"
       hide_knots="false" />
    <inkscape:path-effect
       effect="fillet_chamfer"
       id="path-effect4"
       is_visible="true"
       lpeversion="1"
       nodesatellites_param="F,0,0,1,0,0,0,1 @ F,0,0,1,0,0,0,1 @ F,0,0,1,0,0,0,1 @ F,0,0,1,0,0,0,1 @ F,0,0,1,0,0,0,1 @ F,0,0,1,0,0,0,1 @ F,0,0,1,0,3.3811781,0,1 @ F,0,0,1,0,0,0,1 @ F,0,0,1,0,0,0,1"
       radius="0"
       unit="px"
       method="auto"
       mode="F"
       chamfer_steps="1"
       flexible="false"
       use_knot_distance="true"
       apply_no_radius="true"
       apply_with_radius="true"
       only_selected="false"
       hide_knots="false" />
    <inkscape:path-effect
       effect="fillet_chamfer"
       id="path-effect3"
       is_visible="true"
       lpeversion="1"
       nodesatellites_param="F,0,0,1,0,0,0,1 @ F,0,0,1,0,0,0,1 @ F,0,0,1,0,0,0,1 @ F,0,0,1,0,0,0,1 @ F,0,0,1,0,0,0,1 @ F,0,0,1,0,0,0,1 @ F,0,0,1,0,0,0,1 @ F,0,0,1,0,0,0,1 @ F,0,0,1,0,2.971683,0,1"
       radius="0"
       unit="px"
       method="auto"
       mode="F"
       chamfer_steps="1"
       flexible="false"
       use_knot_distance="true"
       apply_no_radius="true"
       apply_with_radius="true"
       only_selected="false"
       hide_knots="false" />
    <inkscape:path-effect
       effect="fillet_chamfer"
       id="path-effect2"
       is_visible="true"
       lpeversion="1"
       nodesatellites_param="F,0,0,1,0,0,0,1 @ F,0,0,1,0,0,0,1 @ F,0,0,1,0,5.483759,0,1 @ F,0,0,1,0,0,0,1 @ F,0,0,1,0,0,0,1 @ F,0,0,1,0,0,0,1 @ F,0,0,1,0,0,0,1 @ F,0,0,1,0,0,0,1 @ F,0,0,1,0,0,0,1"
       radius="0"
       unit="px"
       method="auto"
       mode="F"
       chamfer_steps="1"
       flexible="false"
       use_knot_distance="true"
       apply_no_radius="true"
       apply_with_radius="true"
       only_selected="false"
       hide_knots="false" />
    <inkscape:path-effect
       effect="fillet_chamfer"
       id="path-effect1"
       is_visible="true"
       lpeversion="1"
       nodesatellites_param="F,0,0,1,0,0,0,1 @ F,0,0,1,0,7.7986793,0,1 @ F,0,0,1,0,0,0,1 @ F,0,0,1,0,0,0,1 @ F,0,0,1,0,0,0,1 @ F,0,0,1,0,0,0,1 @ F,0,0,1,0,0,0,1 @ F,0,0,1,0,0,0,1 @ F,0,0,1,0,0,0,1"
       radius="0"
       unit="px"
       method="auto"
       mode="F"
       chamfer_steps="1"
       flexible="false"
       use_knot_distance="true"
       apply_no_radius="true"
       apply_with_radius="true"
       only_selected="false"
       hide_knots="false" />
    <inkscape:path-effect
       effect="fillet_chamfer"
       id="path-effect5-6"
       is_visible="true"
       lpeversion="1"
       nodesatellites_param="F,0,0,1,0,0,0,1 @ F,0,0,1,0,0,0,1 @ F,0,0,1,0,0,0,1 @ F,0,0,1,0,7.1802279,0,1 @ F,0,0,1,0,0,0,1 @ F,0,0,1,0,15.822674,0,1 @ F,0,0,1,0,0,0,1 @ F,0,0,1,0,0,0,1 @ F,0,0,1,0,0,0,1"
       radius="0"
       unit="px"
       method="auto"
       mode="F"
       chamfer_steps="1"
       flexible="false"
       use_knot_distance="true"
       apply_no_radius="true"
       apply_with_radius="true"
       only_selected="false"
       hide_knots="false" />
    <inkscape:path-effect
       effect="fillet_chamfer"
       id="path-effect5-1"
       is_visible="true"
       lpeversion="1"
       nodesatellites_param="F,0,0,1,0,0,0,1 @ F,0,0,1,0,9.7571571,0,1 @ F,0,0,1,0,7.1970207,0,1 @ F,0,0,1,0,7.1802279,0,1 @ F,0,0,1,0,2.6061468,0,1 @ F,0,0,1,0,0,0,1 @ F,0,0,1,0,4.5855113,0,1 @ F,0,0,1,0,4.2434047,0,1 @ F,0,0,1,0,4.354102,0,1"
       radius="0"
       unit="px"
       method="auto"
       mode="F"
       chamfer_steps="1"
       flexible="false"
       use_knot_distance="true"
       apply_no_radius="true"
       apply_with_radius="true"
       only_selected="false"
       hide_knots="false" />
    <inkscape:path-effect
       effect="fillet_chamfer"
       id="path-effect5-0"
       is_visible="true"
       lpeversion="1"
       nodesatellites_param="F,0,0,1,0,0,0,1 @ F,0,0,1,0,9.7571571,0,1 @ F,0,1,1,0,0,0,1 @ F,0,0,1,0,7.1802279,0,1 @ F,0,0,1,0,0,0,1 @ F,0,0,1,0,0,0,1 @ F,0,0,1,0,4.5855113,0,1 @ F,0,0,1,0,4.2434047,0,1 @ F,0,0,1,0,4.354102,0,1"
       radius="0"
       unit="px"
       method="auto"
       mode="F"
       chamfer_steps="1"
       flexible="false"
       use_knot_distance="true"
       apply_no_radius="true"
       apply_with_radius="true"
       only_selected="false"
       hide_knots="false" />
    <inkscape:path-effect
       effect="fillet_chamfer"
       id="path-effect5-60"
       is_visible="true"
       lpeversion="1"
       nodesatellites_param="F,0,0,1,0,0,0,1 @ F,0,0,1,0,9.7571571,0,1 @ F,0,0,1,0,7.1970207,0,1 @ F,0,0,1,0,7.1802279,0,1 @ F,0,0,1,0,2.6061468,0,1 @ F,0,0,1,0,0,0,1 @ F,0,0,1,0,4.5855113,0,1 @ F,0,0,1,0,4.2434047,0,1 @ F,0,0,1,0,4.354102,0,1"
       radius="0"
       unit="px"
       method="auto"
       mode="F"
       chamfer_steps="1"
       flexible="false"
       use_knot_distance="true"
       apply_no_radius="true"
       apply_with_radius="true"
       only_selected="false"
       hide_knots="false" />
  </defs>
  <g
     inkscape:groupmode="layer"
     id="layer4"
     inkscape:label="Layer 4"
     transform="translate(-28.912753,-37.378585)"
     style="display:none">
    <path
       id="rect151-3"
       style="display:inline;fill:#ff0000;fill-rule:evenodd;stroke-width:0.246608"
       d="m 116.69314,40.193445 c 1.11135,1.924912 0,-4.61e-4 3.3076,6.13614 h 52.46105 l -33.93397,70.821785 c -2.73024,-6.35037 -5.54987,-11.61921 -7.39723,-15.30869 -4.54609,0.52149 -4.54609,0.0957 -4.54609,0.0957 -4.06948,-9.591599 -16.00564,-38.660643 -20.59051,-49.466985 -4.07909,0.06644 1.98914,-0.130921 -4.07909,0.06644 l -5.237404,-12.34439 z"
       sodipodi:nodetypes="cccccccccc"
       inkscape:export-filename="V.svg"
       inkscape:export-xdpi="96"
       inkscape:export-ydpi="96" />
    <path
       id="rect151-3-6"
       style="display:none;fill:#ff0000;fill-rule:evenodd;stroke-width:0.246608"
       d="m 116.69314,40.193445 c 0.85183,1.475413 7.53525,17.286821 12.0996,27.35417 1.77745,3.920402 4.92609,3.914994 6.86184,0.06741 l 14.97954,-29.773978 13.84437,9.219254 c -27.46826,50.401568 -27.8626,55.318969 -29.70996,51.629494 -4.54609,0.52149 -4.54609,0.0957 -4.54609,0.0957 -4.06948,-9.591599 -19.64358,-35.507758 -24.22845,-46.3141 -4.07909,0.06644 1.98914,-0.130921 -4.07909,0.06644 l -5.237404,-12.34439 z"
       sodipodi:nodetypes="cccccccccc"
       inkscape:export-filename="V.svg"
       inkscape:export-xdpi="96"
       inkscape:export-ydpi="96"
       inkscape:path-effect="#path-effect1"
       inkscape:original-d="m 116.69314,40.193445 c 1.11135,1.924912 12.14885,28.251646 15.45645,34.388247 l 18.48453,-36.740645 13.84437,9.219254 c -27.46826,50.401568 -27.8626,55.318969 -29.70996,51.629494 -4.54609,0.52149 -4.54609,0.0957 -4.54609,0.0957 -4.06948,-9.591599 -19.64358,-35.507758 -24.22845,-46.3141 -4.07909,0.06644 1.98914,-0.130921 -4.07909,0.06644 l -5.237404,-12.34439 z" />
    <path
       id="rect151"
       style="display:none;fill:#ff0000;fill-rule:evenodd;stroke-width:0.246608"
       d="m 112.16222,48.246804 c 1.92491,1.111347 -2.3e-4,-3.12e-4 5.93254,3.660341 0,0 47.12104,-5.225296 54.93144,0.65735 4.07178,14.834421 -12.74245,44.856161 -12.74245,44.856161 -34.65761,7.623534 23.25279,-45.513511 -31.38886,-30.224724 8.07858,31.002493 14.08813,30.949864 -7.86351,31.310336 -2.03474,-4.7958 -7.89668,-27.48751 -11.99592,-34.276873 -3.49937,2.097084 1.65719,-1.107951 -3.49937,2.097084 L 94.828168,58.254626 Z"
       sodipodi:nodetypes="cccccccccc"
       inkscape:export-filename="n.svg"
       inkscape:export-xdpi="96"
       inkscape:export-ydpi="96" />
  </g>
  <g
     inkscape:groupmode="layer"
     id="layer2"
     inkscape:label="Layer 6"
     style="font-variation-settings:normal;opacity:1;vector-effect:none;fill:#ff0000;fill-opacity:1;stroke-width:0.246608;stroke-linecap:butt;stroke-linejoin:miter;stroke-miterlimit:4;stroke-dasharray:none;stroke-dashoffset:0;stroke-opacity:1;-inkscape-stroke:none;stop-color:#000000;stop-opacity:1">
    <path
       id="rect151-3-5"
       sodipodi:nodetypes="cccccccccc"
       inkscape:export-filename="V.svg"
       inkscape:export-xdpi="96"
       inkscape:export-ydpi="96"
       inkscape:path-effect="#path-effect5"
       inkscape:original-d="m 87.052797,2.81486 c 1.11135,1.924912 0.727589,-4.61e-4 4.035189,6.13614 h 53.916234 l -33.93397,70.821785 -7.39723,-15.30869 c -4.546096,0.52149 -4.546096,0.0957 -4.546096,0.0957 L 78.536414,15.09281 c -4.07909,0.06644 0.533962,-0.130921 -5.534268,0.06644 L 67.764742,2.81486 Z"
       style="display:none;fill:#ff0000;fill-rule:evenodd;stroke-width:0.246608"
       d="M 87.052797,2.81486 C 89.080825,6.3274804 95.456414,8.951 100.84514,8.951 h 36.96206 a 4.5320987,4.5320987 57.800611 0 1 4.08715,6.490441 l -27.72149,57.856047 a 3.4549366,3.4549366 179.90559 0 1 -6.22655,0.01026 l -3.13942,-6.497093 c -0.62622,-1.295969 -2.29212,-2.190492 -3.72918,-2.113346 -1.950786,0.104724 -1.950786,-0.137514 -1.950786,-0.137514 L 80.29856,19.326219 c -0.973206,-2.338047 -3.814896,-4.27694 -6.344477,-4.197457 -0.525816,0.01652 -1.693965,-1.718447 -2.609303,-3.875869 L 69.465343,6.8231214 A 2.88245,2.88245 123.50487 0 1 72.118844,2.81486 Z"
       inkscape:label="V" />
    <path
       d="m 72.118595,25.69869 a 2.3513518,2.3513518 0 0 0 -1.965771,3.640604 l 0.521932,0.796334 c 1.285274,1.959689 2.75357,3.534654 3.279386,3.518132 2.529581,-0.07948 6.486224,0.73121 8.83512,1.677934 l 4.078304,1.643827 c 0,0 9.873375,-0.03598 15.633154,-0.366386 1.4368,-0.08242 3.76473,-0.22612 5.20382,-0.252698 l 38.78109,-0.716235 a 9.6545928,9.6545928 0 0 0 -9.49399,-5.544881 L 95.394177,31.062703 C 90.006906,31.18804 88.645095,28.457134 87.052568,25.69869 Z"
       style="display:inline;vector-effect:none;fill-rule:evenodd;stop-color:#000000"
       id="path7"
       inkscape:export-filename="_.svg"
       inkscape:export-xdpi="547.32001"
       inkscape:export-ydpi="547.32001" />
    <path
       id="rect151-3-5-3"
       sodipodi:nodetypes="cccccccccccc"
       inkscape:export-filename="&gt;.svg"
       inkscape:export-xdpi="96"
       inkscape:export-ydpi="96"
       style="font-variation-settings:normal;display:none;vector-effect:none;fill:#ff0000;fill-opacity:1;fill-rule:evenodd;stroke-width:0.246608;stroke-linecap:butt;stroke-linejoin:miter;stroke-miterlimit:4;stroke-dasharray:none;stroke-dashoffset:0;stroke-opacity:1;-inkscape-stroke:none;stop-color:#000000"
       d="m 87.052797,2.81486 c 1.11135,1.924912 0.727589,-4.61e-4 4.035189,6.13614 l 56.280044,19.512983 c 6.48614,2.248826 8.2119,10.613548 3.14542,15.245835 L 96.494626,93.099296 103.67302,64.464095 c -1.16151,0.133239 0.0794,-1.410219 2.57091,-3.782292 13.06663,-12.44019 11.64772,-26.516892 -4.99515,-33.494982 L 78.536414,17.663893 c -4.07909,0.06644 0.533962,-0.130921 -5.534268,0.06644 L 67.764742,2.81486 Z" />
    <path
       d="m 135.80411,1.3074137 c -3.9702,-0.1904394 -6.4954,2.9218445 -7.25537,6.7949341 -1.90686,9.7181232 -10.21416,20.4942102 -16.31993,27.3435502 -3.5848,4.021351 -10.29208,4.438104 -14.446148,1.008724 C 89.147242,29.32567 77.267193,18.94844 75.905444,18.087268 l -13.223482,6.939628 c -1.828184,0.959623 -2.084114,3.473819 -0.486792,4.782137 l 3.722254,3.04891 c 1.813053,1.484975 3.653976,2.478476 4.111893,2.219502 2.202931,-1.24587 5.525748,-0.743487 7.357691,1.005107 l 21.140311,20.178613 c 0,0 0.218943,0.77257 2.003491,-0.503845 1.16971,-0.836643 2.9328,-1.022224 4.15841,-0.268201 1.74829,1.075597 4.33067,2.52045 6.92826,3.451469 3.63452,1.302671 8.47108,-2.456933 10.33632,-5.955708 C 148.30828,3.5495921 153.97682,2.1790983 135.80411,1.3074137 Z"
       style="display:none;vector-effect:none;fill-rule:evenodd;stop-color:#000000"
       id="path6"
       inkscape:export-filename="U.svg"
       inkscape:export-xdpi="96"
       inkscape:export-ydpi="96"
       inkscape:label="U"
       sodipodi:nodetypes="ssssccccsccssscs" />
    <path
       d="m 93.032276,22.072329 c 0,0 10.853784,-8.215215 -9.751054,5.833978 0,0 -4.955866,-1.312451 -7.049699,-2.058272 l -14.69006,12.499495 11.988416,6.007385 c 4.493695,-4.082776 1.108755,-0.942966 4.172355,-3.636987 l 8.609274,32.645215 c 5.05667,7.126964 6.908308,-1.400547 8.708897,-9.950655 l 6.023715,-18.846044 a 6.6249892,6.6249892 169.30718 0 1 11.45098,-2.162199 l 9.09485,11.186845 c 2.59827,3.195922 -1.18648,20.678444 9.09441,5.887563 6.77347,-9.74484 3.23605,-26.23997 -21.15923,-43.75237 -4.78523,-3.435124 -16.492854,6.346046 -16.492854,6.346046 z"
       style="display:none;vector-effect:none;fill-rule:evenodd;stop-color:#000000"
       id="path5"
       inkscape:export-filename="N.svg"
       inkscape:export-xdpi="96"
       inkscape:export-ydpi="96"
       inkscape:label="^"
       sodipodi:nodetypes="cccccccscsssc" />
  </g>
  <g
     inkscape:groupmode="layer"
     id="layer1"
     inkscape:label="Layer 5"
     style="display:inline" />
</svg>
