<?xml version="1.0" encoding="UTF-8" standalone="no"?>
<!-- Created with Inkscape (http://www.inkscape.org/) -->

<svg
   width="72.177643mm"
   height="61.027363mm"
   viewBox="0 0 72.177643 61.027363"
   version="1.1"
   id="svg5"
   inkscape:version="1.1.2 (0a00cf5339, 2022-02-04)"
   sodipodi:docname="main.svg"
   xmlns:inkscape="http://www.inkscape.org/namespaces/inkscape"
   xmlns:sodipodi="http://sodipodi.sourceforge.net/DTD/sodipodi-0.dtd"
   xmlns="http://www.w3.org/2000/svg"
   xmlns:svg="http://www.w3.org/2000/svg">
  <sodipodi:namedview
     id="namedview7"
     pagecolor="#505050"
     bordercolor="#ffffff"
     borderopacity="1"
     inkscape:showpageshadow="0"
     inkscape:pageopacity="0"
     inkscape:pagecheckerboard="1"
     inkscape:deskcolor="#505050"
     inkscape:document-units="mm"
     showgrid="false"
     showguides="true"
     inkscape:zoom="1.0909319"
     inkscape:cx="276.82755"
     inkscape:cy="117.33088"
     inkscape:window-width="1600"
     inkscape:window-height="843"
     inkscape:window-x="0"
     inkscape:window-y="28"
     inkscape:window-maximized="1"
     inkscape:current-layer="layer4"
     inkscape:pageshadow="2"
     inkscape:snap-to-guides="false"
     inkscape:snap-grids="false">
    <inkscape:page
       x="0"
       y="-7.0034622e-24"
       width="72.177643"
       height="61.027363"
       id="page2"
       margin="0"
       bleed="0" />
  </sodipodi:namedview>
  <defs
     id="defs2" />
  <g
     inkscape:groupmode="layer"
     id="layer2"
     inkscape:label="Layer 6"
     style="font-variation-settings:normal;opacity:1;vector-effect:none;fill:#ff0000;fill-opacity:1;stroke-width:0.246608;stroke-linecap:butt;stroke-linejoin:miter;stroke-miterlimit:4;stroke-dasharray:none;stroke-dashoffset:0;stroke-opacity:1;-inkscape-stroke:none;stop-color:#000000;stop-opacity:1"
     transform="translate(-61.541466,-14.994949)">
    <path
       d="m 93.032276,22.072329 c 0,0 10.853784,-8.215215 -9.751054,5.833978 0,0 -4.955866,-1.312451 -7.049699,-2.058272 l -14.69006,12.499495 11.988416,6.007385 c 4.493695,-4.082776 1.108755,-0.942966 4.172355,-3.636987 l 8.609274,32.645215 c 5.05667,7.126964 6.908308,-1.400547 8.708897,-9.950655 l 6.023715,-18.846044 a 6.6249892,6.6249892 169.30718 0 1 11.45098,-2.162199 l 9.09485,11.186845 c 2.59827,3.195922 -1.18648,20.678444 9.09441,5.887563 6.77347,-9.74484 3.23605,-26.23997 -21.15923,-43.75237 -4.78523,-3.435124 -16.492854,6.346046 -16.492854,6.346046 z"
       style="display:inline;vector-effect:none;fill-rule:evenodd;stop-color:#000000"
       id="path5"
       inkscape:export-filename="N.svg"
       inkscape:export-xdpi="96"
       inkscape:export-ydpi="96"
       inkscape:label="^"
       sodipodi:nodetypes="cccccccscsssc" />
  </g>
</svg>
