<?xml version="1.0" encoding="UTF-8" standalone="no"?>
<!-- Created with Inkscape (http://www.inkscape.org/) -->

<svg
   width="53.53286mm"
   height="79.764656mm"
   viewBox="0 0 53.53286 79.764656"
   version="1.1"
   id="svg5"
   inkscape:version="1.2.2 (b0a8486541, 2022-12-01)"
   sodipodi:docname="disp.svg"
   xmlns:inkscape="http://www.inkscape.org/namespaces/inkscape"
   xmlns:sodipodi="http://sodipodi.sourceforge.net/DTD/sodipodi-0.dtd"
   xmlns="http://www.w3.org/2000/svg"
   xmlns:svg="http://www.w3.org/2000/svg">
  <sodipodi:namedview
     id="namedview7"
     pagecolor="#505050"
     bordercolor="#ffffff"
     borderopacity="1"
     inkscape:showpageshadow="0"
     inkscape:pageopacity="0"
     inkscape:pagecheckerboard="1"
     inkscape:deskcolor="#505050"
     inkscape:document-units="mm"
     showgrid="false"
     showguides="true"
     inkscape:zoom="1.0909319"
     inkscape:cx="370.78393"
     inkscape:cy="329.99311"
     inkscape:window-width="1920"
     inkscape:window-height="1023"
     inkscape:window-x="0"
     inkscape:window-y="27"
     inkscape:window-maximized="1"
     inkscape:current-layer="layer1">
    <sodipodi:guide
       position="18.076703,74.26966"
       orientation="0,-1"
       id="guide3147"
       inkscape:locked="false" />
  </sodipodi:namedview>
  <defs
     id="defs2" />
  <g
     inkscape:groupmode="layer"
     id="layer4"
     inkscape:label="Layer 4"
     transform="translate(-28.912753,-37.378585)">
    <path
       id="path3108-3"
       style="display:inline;vector-effect:none;fill:#ff0000;stroke-width:0.264999;stroke-linejoin:round;stop-color:#000000"
       d="m 37.50625,37.378584 c 0,0 -9.610581,28.168902 -8.504919,35.305352 0.04998,7.960055 2.36969,5.188169 5.067907,8.717297 -1.04e-4,19.739797 10.829387,35.742137 24.188188,35.742007 13.358802,1.3e-4 24.188292,-16.00221 24.188188,-35.742007 C 82.444647,62.500948 59.663168,58.97508 46.895846,57.833679 Z m 20.169816,28.750713 c 7.310564,-0.06866 21.651655,5.396519 20.146057,21.786784 -1.114183,12.129249 -11.551011,24.046589 -18.861898,24.046589 -7.310886,0 -17.792326,-9.5752 -18.055228,-21.752672 -0.437184,-20.250054 6.407989,-23.983379 16.771069,-24.080701 z"
       sodipodi:nodetypes="cccccccsssss" />
  </g>
</svg>
