<?xml version="1.0" encoding="UTF-8" standalone="no"?>
<!-- Created with Inkscape (http://www.inkscape.org/) -->

<svg
   width="85.235512mm"
   height="57.90556mm"
   viewBox="0 0 85.235512 57.905559"
   version="1.1"
   id="svg5"
   inkscape:version="1.1.2 (0a00cf5339, 2022-02-04)"
   sodipodi:docname="main.svg"
   xmlns:inkscape="http://www.inkscape.org/namespaces/inkscape"
   xmlns:sodipodi="http://sodipodi.sourceforge.net/DTD/sodipodi-0.dtd"
   xmlns="http://www.w3.org/2000/svg"
   xmlns:svg="http://www.w3.org/2000/svg">
  <sodipodi:namedview
     id="namedview7"
     pagecolor="#505050"
     bordercolor="#ffffff"
     borderopacity="1"
     inkscape:showpageshadow="0"
     inkscape:pageopacity="0"
     inkscape:pagecheckerboard="1"
     inkscape:deskcolor="#505050"
     inkscape:document-units="mm"
     showgrid="false"
     showguides="true"
     inkscape:zoom="1.0909319"
     inkscape:cx="276.82755"
     inkscape:cy="117.33088"
     inkscape:window-width="1600"
     inkscape:window-height="843"
     inkscape:window-x="0"
     inkscape:window-y="28"
     inkscape:window-maximized="1"
     inkscape:current-layer="layer4"
     inkscape:pageshadow="2"
     inkscape:snap-to-guides="false"
     inkscape:snap-grids="false">
    <inkscape:page
       x="0"
       y="-7.0034629e-24"
       width="85.235512"
       height="57.90556"
       id="page2"
       margin="0"
       bleed="0" />
  </sodipodi:namedview>
  <defs
     id="defs2" />
  <g
     inkscape:groupmode="layer"
     id="layer2"
     inkscape:label="Layer 6"
     style="font-variation-settings:normal;opacity:1;vector-effect:none;fill:#ff0000;fill-opacity:1;stroke-width:0.246608;stroke-linecap:butt;stroke-linejoin:miter;stroke-miterlimit:4;stroke-dasharray:none;stroke-dashoffset:0;stroke-opacity:1;-inkscape-stroke:none;stop-color:#000000;stop-opacity:1"
     transform="translate(-61.139183,-1.299116)">
    <path
       d="m 135.80411,1.3074137 c -3.9702,-0.1904394 -6.4954,2.9218445 -7.25537,6.7949341 -1.90686,9.7181232 -10.21416,20.4942102 -16.31993,27.3435502 -3.5848,4.021351 -10.29208,4.438104 -14.446148,1.008724 C 89.147242,29.32567 77.267193,18.94844 75.905444,18.087268 l -13.223482,6.939628 a 2.88245,2.88245 0 0 0 -0.486792,4.782137 l 3.722254,3.04891 c 1.813053,1.484975 3.653976,2.478476 4.111893,2.219502 2.202931,-1.24587 5.525748,-0.743487 7.357691,1.005107 l 21.140311,20.178613 c 0,0 0.218943,0.77257 2.003491,-0.503845 1.16971,-0.836643 2.9328,-1.022224 4.15841,-0.268201 1.74829,1.075597 4.33067,2.52045 6.92826,3.451469 3.63452,1.302671 8.47108,-2.456933 10.33632,-5.955708 C 148.30828,3.5495921 153.97682,2.1790983 135.80411,1.3074137 Z"
       style="display:inline;vector-effect:none;fill-rule:evenodd;stop-color:#000000"
       id="path6" />
  </g>
</svg>
