<?xml version="1.0" encoding="UTF-8" standalone="no"?>
<!-- Created with Inkscape (http://www.inkscape.org/) -->

<svg
   width="57.400108mm"
   height="56.103035mm"
   viewBox="0 0 57.400108 56.103035"
   version="1.1"
   id="svg5"
   inkscape:version="1.2.2 (b0a8486541, 2022-12-01)"
   sodipodi:docname="disp.svg"
   xmlns:inkscape="http://www.inkscape.org/namespaces/inkscape"
   xmlns:sodipodi="http://sodipodi.sourceforge.net/DTD/sodipodi-0.dtd"
   xmlns="http://www.w3.org/2000/svg"
   xmlns:svg="http://www.w3.org/2000/svg">
  <sodipodi:namedview
     id="namedview7"
     pagecolor="#505050"
     bordercolor="#ffffff"
     borderopacity="1"
     inkscape:showpageshadow="0"
     inkscape:pageopacity="0"
     inkscape:pagecheckerboard="1"
     inkscape:deskcolor="#505050"
     inkscape:document-units="mm"
     showgrid="false"
     showguides="true"
     inkscape:zoom="1.0909319"
     inkscape:cx="370.78393"
     inkscape:cy="329.99311"
     inkscape:window-width="1920"
     inkscape:window-height="1023"
     inkscape:window-x="0"
     inkscape:window-y="27"
     inkscape:window-maximized="1"
     inkscape:current-layer="layer1">
    <sodipodi:guide
       position="25.422812,55.027418"
       orientation="0,-1"
       id="guide3147"
       inkscape:locked="false" />
  </sodipodi:namedview>
  <defs
     id="defs2" />
  <path
     id="path3108-38"
     style="display:inline;vector-effect:none;fill:#ff0000;stroke-width:0.264999;stroke-linejoin:round;stop-color:#000000"
     d="M 57.400113,1.7766786e-7 42.137479,13.841016 C 40.783467,15.169553 33.163321,22.711343 29.306738,26.043372 25.249054,22.382419 18.949827,16.150813 17.729666,14.95361 L 2.4670317,1.1125942 c 0,0 7.8731183,17.6610028 8.9787803,24.7974528 0.01526,2.429846 2.941178,5.86218 7.066752,9.557039 C 13.417029,39.802795 6.8576267,45.356092 -1.2574635e-6,51.392729 1.9328047,50.93305 4.7932247,47.151859 14.458548,54.990442 c 1.169109,-1.529134 7.694781,-5.910199 14.716415,-11.028784 7.576185,5.588814 14.980513,10.502361 16.233634,12.141378 4.240267,-6.33375 5.435646,-4.241606 11.854574,-6.373771 C 50.464299,43.74435 44.634275,38.956503 40.223901,35.347714 44.936279,31.278952 48.404718,27.443711 48.421333,24.797453 49.526995,17.661003 57.400113,1.7766786e-7 57.400113,1.7766786e-7 Z" />
</svg>
