<?xml version="1.0" encoding="UTF-8" standalone="no"?>
<!-- Created with Inkscape (http://www.inkscape.org/) -->

<svg
   width="30.621628mm"
   height="52.56757mm"
   viewBox="0 0 30.621628 52.56757"
   version="1.1"
   id="svg5"
   inkscape:version="1.2.2 (b0a8486541, 2022-12-01)"
   sodipodi:docname="disp.svg"
   xmlns:inkscape="http://www.inkscape.org/namespaces/inkscape"
   xmlns:sodipodi="http://sodipodi.sourceforge.net/DTD/sodipodi-0.dtd"
   xmlns="http://www.w3.org/2000/svg"
   xmlns:svg="http://www.w3.org/2000/svg">
  <sodipodi:namedview
     id="namedview7"
     pagecolor="#505050"
     bordercolor="#ffffff"
     borderopacity="1"
     inkscape:showpageshadow="0"
     inkscape:pageopacity="0"
     inkscape:pagecheckerboard="1"
     inkscape:deskcolor="#505050"
     inkscape:document-units="mm"
     showgrid="false"
     showguides="true"
     inkscape:zoom="1.0909319"
     inkscape:cx="370.78393"
     inkscape:cy="329.99311"
     inkscape:window-width="1920"
     inkscape:window-height="1023"
     inkscape:window-x="0"
     inkscape:window-y="27"
     inkscape:window-maximized="1"
     inkscape:current-layer="layer1">
    <sodipodi:guide
       position="19.35524,66.345994"
       orientation="0,-1"
       id="guide3147"
       inkscape:locked="false" />
  </sodipodi:namedview>
  <defs
     id="defs2" />
  <path
     id="rect4982"
     style="opacity:1;vector-effect:none;fill:#ff0000;stroke-width:0.136097;stroke-linejoin:round;stop-color:#000000;stop-opacity:1"
     d="M 0.30464606,8.7035887e-4 C -0.42550494,0.06438036 0.77189506,3.6081304 4.1721101,10.726313 c 3.758136,7.867472 5.388103,11.208798 8.0734089,15.651758 -1.585263,3.015165 -3.5013619,6.830841 -6.3748039,12.521716 -8.813074,17.45436 -7.633136,18.20488 3.064929,1.769918 2.6393269,-4.054682 4.6169319,-7.13333 6.2053059,-9.675378 1.623048,2.522131 3.647883,5.603885 6.362919,9.751343 10.709376,16.359517 11.949509,15.712357 3.065446,-1.769918 -2.91942,-5.744906 -4.924711,-9.600862 -6.592879,-12.650908 2.755497,-4.699315 4.368422,-8.062003 8.291483,-15.675012 C 33.017852,-2.4489436 31.860742,-3.7329306 23.202473,8.8804314 19.195428,14.717893 17.074195,17.847082 15.076354,21.250735 13.017307,17.821686 10.932828,14.704098 7.2375561,8.9563954 3.3776171,2.9525674 0.99054606,-0.05878864 0.30464606,8.7035887e-4 Z" />
</svg>
